<?xml version="1.0" standalone="no"?>
<svg xmlns:xlink="http://www.w3.org/1999/xlink" id="wave" style="transform:rotate(180deg); transition: 0.3s" viewBox="0 0 1440 100" version="1.1" xmlns="http://www.w3.org/2000/svg"><defs><linearGradient id="sw-gradient-0" x1="0" x2="0" y1="1" y2="0"><stop stop-color="rgba(255, 255, 255, 1)" offset="0%"/><stop stop-color="rgba(255, 255, 255, 1)" offset="100%"/></linearGradient></defs><path style="transform:translate(0, 0px); opacity:1" fill="url(#sw-gradient-0)" d="M0,30L10,30C20,30,40,30,60,33.3C80,37,100,43,120,38.3C140,33,160,17,180,11.7C200,7,220,13,240,21.7C260,30,280,40,300,40C320,40,340,30,360,23.3C380,17,400,13,420,13.3C440,13,460,17,480,15C500,13,520,7,540,6.7C560,7,580,13,600,25C620,37,640,53,660,51.7C680,50,700,30,720,21.7C740,13,760,17,780,26.7C800,37,820,53,840,65C860,77,880,83,900,83.3C920,83,940,77,960,75C980,73,1000,77,1020,70C1040,63,1060,47,1080,45C1100,43,1120,57,1140,66.7C1160,77,1180,83,1200,75C1220,67,1240,43,1260,30C1280,17,1300,13,1320,13.3C1340,13,1360,17,1380,20C1400,23,1420,27,1430,28.3L1440,30L1440,100L1430,100C1420,100,1400,100,1380,100C1360,100,1340,100,1320,100C1300,100,1280,100,1260,100C1240,100,1220,100,1200,100C1180,100,1160,100,1140,100C1120,100,1100,100,1080,100C1060,100,1040,100,1020,100C1000,100,980,100,960,100C940,100,920,100,900,100C880,100,860,100,840,100C820,100,800,100,780,100C760,100,740,100,720,100C700,100,680,100,660,100C640,100,620,100,600,100C580,100,560,100,540,100C520,100,500,100,480,100C460,100,440,100,420,100C400,100,380,100,360,100C340,100,320,100,300,100C280,100,260,100,240,100C220,100,200,100,180,100C160,100,140,100,120,100C100,100,80,100,60,100C40,100,20,100,10,100L0,100Z"/></svg>